<?xml version="1.0" encoding="utf-8"?>
<!-- Generator: Adobe Illustrator 21.0.2, SVG Export Plug-In . SVG Version: 6.00 Build 0)  -->
<svg version="1.1" id="图层_1" xmlns="http://www.w3.org/2000/svg" xmlns:xlink="http://www.w3.org/1999/xlink" x="0px" y="0px"
	 viewBox="0 0 766 766" style="enable-background:new 0 0 766 766;" xml:space="preserve">
<style type="text/css">
	.st0{fill-rule:evenodd;clip-rule:evenodd;}
</style>
<g>
	<path class="st0" d="M383,0C171.5,0,0,171.5,0,383c0,211.5,171.5,383,383,383c211.5,0,383-171.5,383-383C766,171.5,594.5,0,383,0
		L383,0z M588.9,588.8c-15.4,15.4-40.6,15.4-56.1,0L382.9,438.9L233.2,588.6c-15.5,15.5-40.6,15.5-56.1,0
		c-15.5-15.4-15.5-40.5,0-56.1l149.7-149.7L177.5,233.5c-15.4-15.5-15.5-40.6,0-56.1c15.4-15.5,40.6-15.5,56.1,0l149.3,149.3
		l149.4-149.4c15.5-15.5,40.7-15.5,56.1,0c15.5,15.5,15.4,40.6,0,56.1L439,382.8l149.9,149.9C604.3,548.2,604.4,573.3,588.9,588.8
		L588.9,588.8z"/>
</g>
</svg>
