<?xml version="1.0" encoding="utf-8"?>
<!-- Generator: Adobe Illustrator 21.0.2, SVG Export Plug-In . SVG Version: 6.00 Build 0)  -->
<svg version="1.1" id="图层_1" xmlns="http://www.w3.org/2000/svg" xmlns:xlink="http://www.w3.org/1999/xlink" x="0px" y="0px"
	 viewBox="0 0 759.1 717.1" style="enable-background:new 0 0 759.1 717.1;" xml:space="preserve">
<style type="text/css">
	.st0{fill-rule:evenodd;clip-rule:evenodd;}
</style>
<g>
	<path class="st0" d="M312.8,625.6C140.3,625.6,0,485.3,0,312.8C0,140.3,140.3,0,312.8,0c172.5,0,312.8,140.3,312.8,312.8
		C625.6,485.3,485.3,625.6,312.8,625.6L312.8,625.6z M312.8,74.6c-131.4,0-238.2,106.9-238.2,238.2S181.5,551,312.8,551
		C444.1,551,551,444.2,551,312.8C551,181.5,444.1,74.6,312.8,74.6L312.8,74.6z"/>
	<path class="st0" d="M713.3,717.1c-10.5,0-21.2-3.7-29.9-11.1L515.6,561c-19.1-16.5-21.2-45.4-4.7-64.6
		c16.5-19.1,45.4-21.3,64.6-4.7l167.8,145c19.1,16.5,21.2,45.4,4.7,64.6C738.9,711.8,726.2,717.1,713.3,717.1L713.3,717.1z"/>
</g>
</svg>
