<?xml version="1.0" encoding="utf-8"?>
<!-- Generator: Adobe Illustrator 21.0.2, SVG Export Plug-In . SVG Version: 6.00 Build 0)  -->
<svg version="1.1" id="图层_1" xmlns="http://www.w3.org/2000/svg" xmlns:xlink="http://www.w3.org/1999/xlink" x="0px" y="0px"
	 viewBox="0 0 755.5 653.7" style="enable-background:new 0 0 755.5 653.7;" xml:space="preserve">
<style type="text/css">
	.st0{fill-rule:evenodd;clip-rule:evenodd;}
</style>
<path class="st0" d="M139.7,111.7H28.3C12.7,111.7,0,98.9,0,83.4V28.3C0,12.7,12.7,0,28.3,0h111.4C155.3,0,168,12.7,168,28.3v55.1
	C168,98.9,155.3,111.7,139.7,111.7z"/>
<path class="st0" d="M723,112H269c-18,0-32.5-14.6-32.5-32.5v-47c0-18,14.6-32.5,32.5-32.5h454c18,0,32.5,14.6,32.5,32.5v47
	C755.5,97.4,741,112,723,112z"/>
<path class="st0" d="M139.7,382.5H28.3C12.7,382.5,0,369.8,0,354.2v-55.1c0-15.6,12.7-28.3,28.3-28.3h111.4
	c15.6,0,28.3,12.7,28.3,28.3v55.1C168,369.8,155.3,382.5,139.7,382.5z"/>
<path class="st0" d="M723,382.8H269c-18,0-32.5-14.6-32.5-32.5v-47c0-18,14.6-32.5,32.5-32.5h454c18,0,32.5,14.6,32.5,32.5v47
	C755.5,368.3,741,382.8,723,382.8z"/>
<path class="st0" d="M139.7,653.3H28.3C12.7,653.3,0,640.6,0,625V570c0-15.6,12.7-28.3,28.3-28.3h111.4c15.6,0,28.3,12.7,28.3,28.3
	V625C168,640.6,155.3,653.3,139.7,653.3z"/>
<path class="st0" d="M723,653.7H269c-18,0-32.5-14.6-32.5-32.5v-47c0-18,14.6-32.5,32.5-32.5h454c18,0,32.5,14.6,32.5,32.5v47
	C755.5,639.1,741,653.7,723,653.7z"/>
</svg>
