<?xml version="1.0" encoding="utf-8"?>
<!-- Generator: Adobe Illustrator 21.0.2, SVG Export Plug-In . SVG Version: 6.00 Build 0)  -->
<svg version="1.1" id="图层_1" xmlns="http://www.w3.org/2000/svg" xmlns:xlink="http://www.w3.org/1999/xlink" x="0px" y="0px"
	 viewBox="0 0 715 655.7" style="enable-background:new 0 0 715 655.7;" xml:space="preserve">
<style type="text/css">
	.st0{fill-rule:evenodd;clip-rule:evenodd;}
</style>
<g>
	<path class="st0" d="M292.5,360.6h-260C14.6,360.6,0,375.3,0,393.4v229.5c0,18.1,14.6,32.8,32.5,32.8h260
		c17.9,0,32.5-14.7,32.5-32.8V393.4C325,375.3,310.4,360.6,292.5,360.6L292.5,360.6 M292.5,622.9h-260V459h260L292.5,622.9
		L292.5,622.9 M682.5,0h-260c-18,0-32.5,14.7-32.5,32.8v229.5c0,18.1,14.5,32.8,32.5,32.8h260c18,0,32.5-14.7,32.5-32.8V32.8
		C715,14.7,700.4,0,682.5,0L682.5,0 M682.5,262.3h-260V98.4h260V262.3L682.5,262.3 M292.5,0h-260C14.6,0,0,14.7,0,32.8v229.5
		c0,18.1,14.6,32.8,32.5,32.8h260c17.9,0,32.5-14.7,32.5-32.8V32.8C325,14.7,310.4,0,292.5,0L292.5,0 M292.5,262.3h-260V98.4h260
		L292.5,262.3L292.5,262.3 M682.5,360.6h-260c-18,0-32.5,14.7-32.5,32.8v229.5c0,18.1,14.5,32.8,32.5,32.8h260
		c18,0,32.5-14.7,32.5-32.8V393.4C715,375.3,700.4,360.6,682.5,360.6L682.5,360.6 M682.5,622.9h-260V459h260V622.9L682.5,622.9
		 M682.5,622.9L682.5,622.9z"/>
</g>
</svg>
